<?xml version="1.0" standalone="no"?>
<!DOCTYPE svg PUBLIC "-//W3C//DTD SVG 20010904//EN"
 "http://www.w3.org/TR/2001/REC-SVG-20010904/DTD/svg10.dtd">
<svg version="1.0" xmlns="http://www.w3.org/2000/svg"
 width="719.000000pt" height="719.000000pt" viewBox="0 0 719.000000 719.000000"
 preserveAspectRatio="xMidYMid meet">

<g transform="translate(0.000000,719.000000) scale(0.100000,-0.100000)"
fill="#000000" stroke="none">
<path d="M0 5950 l0 -1199 33 -5 c17 -3 82 -10 142 -16 502 -51 938 -210 1250
-455 102 -80 266 -248 337 -345 162 -222 267 -460 323 -735 24 -114 54 -380
44 -388 -6 -6 -1289 -61 -1294 -55 -2 2 -20 65 -39 139 -107 424 -313 643
-695 740 -42 10 -82 19 -89 19 -10 0 -12 -148 -10 -722 l3 -721 190 -49 c490
-126 851 -250 1124 -388 473 -237 806 -642 931 -1127 34 -136 49 -242 62 -446
l12 -197 570 2 569 3 868 2230 c478 1227 885 2272 905 2323 l36 92 688 0 688
0 243 -607 c134 -335 255 -637 271 -673 l27 -65 1 1923 0 1922 -3595 0 -3595
0 0 -1200z"/>
<path d="M5512 1952 c-238 -653 -432 -1190 -432 -1195 0 -4 394 -7 875 -7 481
0 875 2 875 4 0 5 -881 2380 -884 2383 -1 2 -197 -532 -434 -1185z"/>
<path d="M0 430 l0 -430 505 0 505 0 0 83 c0 209 -98 385 -279 502 -139 89
-281 147 -542 220 -90 25 -170 48 -176 50 -10 3 -13 -86 -13 -425z"/>
</g>
</svg>
